<svg width="20" height="20" viewBox="0 0 20 20" fill="none" xmlns="http://www.w3.org/2000/svg">
<path opacity="0.4" d="M9.99988 -0.000244141C15.5149 -0.000244141 19.9999 4.48576 19.9999 9.99976C19.9999 15.5138 15.5149 19.9998 9.99988 19.9998C4.48588 19.9998 -0.00012207 15.5138 -0.00012207 9.99976C-0.00012207 4.48576 4.48588 -0.000244141 9.99988 -0.000244141Z" fill="#B33FFF"/>
<path d="M8.55748 5.77917C8.74848 5.77917 8.94048 5.85217 9.08648 5.99817L12.5735 9.46817C12.7145 9.60917 12.7935 9.80017 12.7935 10.0002C12.7935 10.1992 12.7145 10.3902 12.5735 10.5312L9.08648 14.0032C8.79348 14.2952 8.31948 14.2952 8.02648 14.0012C7.73448 13.7072 7.73548 13.2322 8.02848 12.9402L10.9815 10.0002L8.02848 7.06017C7.73548 6.76817 7.73448 6.29417 8.02648 6.00017C8.17248 5.85217 8.36548 5.77917 8.55748 5.77917Z" fill="#B33FFF"/>
</svg>
